<svg width="184" height="52" fill="none" xmlns="http://www.w3.org/2000/svg"><g clip-path="url(#a)" fill="#120D26"><path d="M.51 12.915h10.888l6.339 16.3 6.422-16.3h10.6L18.797 51.5H8.13l4.369-10.224L.51 12.916Zm45.293-.648c-8.18 0-13.352 7.372-13.352 14.714 0 8.261 5.67 14.811 13.196 14.811 5.615 0 7.732-3.437 7.732-3.437v2.677h9.496V12.916h-9.496v2.556s-2.362-3.205-7.576-3.205Zm2.02 9.035c3.774 0 5.721 3.001 5.721 5.71 0 2.916-2.086 5.777-5.722 5.777-3.013 0-5.736-2.474-5.736-5.653 0-3.225 2.19-5.834 5.736-5.834Zm18.321 19.73V.5h9.932v15.069s2.36-3.3 7.3-3.3c6.044 0 9.585 4.526 9.585 10.992v17.771h-9.86V25.696c0-2.189-1.037-4.303-3.386-4.303-2.392 0-3.639 2.146-3.639 4.303v15.336h-9.931Zm43.751-28.762c-9.368 0-14.946 7.158-14.946 14.828 0 8.727 6.753 14.694 14.981 14.694 7.974 0 14.952-5.696 14.952-14.548 0-9.686-7.306-14.974-14.987-14.974Zm.089 9.115c3.309 0 5.599 2.77 5.599 5.723 0 2.52-2.134 5.626-5.599 5.626-3.175 0-5.558-2.56-5.558-5.654 0-2.98 1.981-5.695 5.558-5.695Zm31.445-9.115c-9.368 0-14.946 7.158-14.946 14.828 0 8.727 6.754 14.694 14.981 14.694 7.975 0 14.953-5.696 14.953-14.548 0-9.686-7.307-14.974-14.988-14.974Zm.089 9.115c3.309 0 5.599 2.77 5.599 5.723 0 2.52-2.134 5.626-5.599 5.626-3.175 0-5.558-2.56-5.558-5.654 0-2.98 1.981-5.695 5.558-5.695Zm22.736 20.245c3.642 0 6.595-2.968 6.595-6.629 0-3.66-2.953-6.627-6.595-6.627-3.643 0-6.595 2.967-6.595 6.628 0 3.66 2.952 6.627 6.595 6.627Zm8.762-15.69h-11.873L171.681.5h11.828l-10.493 25.44Z"/></g><defs><clipPath id="a"><path fill="#fff" transform="translate(.51 .5)" d="M0 0h182.999v51H0z"/></clipPath></defs></svg>