<svg width="245" height="58" fill="none" xmlns="http://www.w3.org/2000/svg"><path d="M92.16 20.44h-5.329v25.584h5.33V35.652h11.69v10.372h5.158V20.44h-5.158v10.372h-11.69V20.44Zm40.918 14.694c0 4.148-2.063 6.395-5.846 6.395-3.782 0-5.845-2.247-5.845-6.568V20.44h-5.157v14.693c0 7.26 3.954 11.408 11.002 11.408 7.049 0 11.003-4.148 11.003-11.581V20.44h-5.157v14.693Zm49.857-14.694-5.845 17.632-5.674-17.632h-5.501l8.94 25.584h4.298l5.845-16.768 5.673 16.768h4.47l8.768-25.584h-5.329l-5.674 17.632-5.845-17.632h-4.126Zm39.714 9.854h-9.456v-5.186h13.754V20.44h-18.912v25.584h19.427v-4.667h-14.269V34.96h9.456v-4.667Zm11.003-9.854h5.157v25.584h-5.157V20.44Zm-73.583 20.225 2.235 5.359h5.502L156.631 20.44l-.172-.172h-4.47l-11.175 25.756h5.33l2.235-5.013.172-.346h11.518Zm-5.845-13.829 3.61 8.643.172.519h-7.908l.172-.519 3.954-8.643ZM35.942 43.43s.172-.172 0-.172c-7.908-17.286-18.739-30.596-18.739-30.596s-5.845 5.531-5.502 11.236c.172 4.321 3.439 6.741 3.439 6.741 5.158 5.013 17.536 11.409 20.459 12.792h.343Zm-2.063 4.322c0-.172-.343-.172-.343-.172l-20.631.691c2.235 3.976 6.017 7.087 9.971 6.223 2.751-.691 8.94-5.013 10.831-6.396.344-.346.172-.346.172-.346Zm.344-1.901c.172-.173 0-.346 0-.346-9.112-6.223-26.648-15.557-26.648-15.557-1.547 5.013.516 8.989.516 8.989 2.235 4.84 6.533 6.223 6.533 6.223 1.891.864 3.954.864 3.954.864h15.473c.172 0 .172-.173.172-.173ZM35.6 3.673c-.86 0-3.267.691-3.267.691-5.501 1.383-6.705 6.396-6.705 6.396-1.031 3.112 0 6.569 0 6.569 1.891 8.124 10.831 21.608 12.722 24.373l.172.173c.172 0 .172-.173.172-.173 3.095-30.25-3.094-38.03-3.094-38.03Zm6.876 38.03c.172 0 .344-.174.344-.174 2.063-2.938 10.831-16.249 12.722-24.373 0 0 1.032-3.976 0-6.569 0 0-1.375-5.013-6.876-6.396 0 0-1.548-.345-3.267-.691 0 0-6.19 7.952-3.095 37.857 0 .345.172.345.172.345Zm4.814 5.877s-.172 0-.172.172v.346c2.063 1.383 7.909 5.705 10.831 6.396 0 0 5.33 1.901 9.972-6.223l-20.63-.691Zm26.304-17.805s-17.536 9.507-26.648 15.73c0 0-.172.173-.172.346 0 0 0 .173.172.173h15.817s1.547 0 3.61-.864c0 0 4.299-1.383 6.705-6.396 0-.173 2.063-4.149.516-8.99ZM45.226 43.43s.172.173.344 0c2.923-1.556 15.301-7.779 20.459-12.792 0 0 3.266-2.593 3.438-6.741.344-5.878-5.502-11.236-5.502-11.236s-10.83 12.964-18.739 30.423c0 0-.172.173 0 .346Z" fill="#120D26"/></svg>