<svg width="152" height="28" viewBox="0 0 152 28" fill="none" xmlns="http://www.w3.org/2000/svg">
<path d="M14.0207 0.505157L17.0505 9.82987H26.8551L18.923 15.5929L21.9528 24.9176L14.0207 19.1546L6.08865 24.9176L9.11843 15.5929L1.18636 9.82987H10.9909L14.0207 0.505157Z" fill="#FFC042"/>
<path d="M45.0105 0.505157L48.0403 9.82987H57.8448L49.9128 15.5929L52.9425 24.9176L45.0105 19.1546L37.0784 24.9176L40.1082 15.5929L32.1761 9.82987H41.9807L45.0105 0.505157Z" fill="#FFC042"/>
<path d="M76.0002 0.505157L79.03 9.82987H88.8346L80.9025 15.5929L83.9323 24.9176L76.0002 19.1546L68.0681 24.9176L71.0979 15.5929L63.1659 9.82987H72.9704L76.0002 0.505157Z" fill="#FFC042"/>
<path d="M106.99 0.505157L110.02 9.82987H119.824L111.892 15.5929L114.922 24.9176L106.99 19.1546L99.0579 24.9176L102.088 15.5929L94.1556 9.82987H103.96L106.99 0.505157Z" fill="#D0CFD4"/>
<path d="M137.98 0.505157L141.009 9.82987H150.814L142.882 15.5929L145.912 24.9176L137.98 19.1546L130.048 24.9176L133.077 15.5929L125.145 9.82987H134.95L137.98 0.505157Z" fill="#D0CFD4"/>
</svg>
