<svg width="152" height="27" viewBox="0 0 152 27" fill="none" xmlns="http://www.w3.org/2000/svg">
<path d="M14.0207 0.00515747L17.0505 9.32987H26.8551L18.923 15.0929L21.9528 24.4176L14.0207 18.6546L6.08865 24.4176L9.11843 15.0929L1.18636 9.32987H10.9909L14.0207 0.00515747Z" fill="#FFC042"/>
<path d="M45.0105 0.00515747L48.0403 9.32987H57.8448L49.9128 15.0929L52.9425 24.4176L45.0105 18.6546L37.0784 24.4176L40.1082 15.0929L32.1761 9.32987H41.9807L45.0105 0.00515747Z" fill="#FFC042"/>
<path d="M76.0002 0.00515747L79.03 9.32987H88.8346L80.9025 15.0929L83.9323 24.4176L76.0002 18.6546L68.0681 24.4176L71.0979 15.0929L63.1659 9.32987H72.9704L76.0002 0.00515747Z" fill="#FFC042"/>
<path d="M106.99 0.00515747L110.02 9.32987H119.824L111.892 15.0929L114.922 24.4176L106.99 18.6546L99.0579 24.4176L102.088 15.0929L94.1556 9.32987H103.96L106.99 0.00515747Z" fill="#FFC042"/>
<path d="M137.98 0.00515747L141.009 9.32987H150.814L142.882 15.0929L145.912 24.4176L137.98 18.6546L130.048 24.4176L133.077 15.0929L125.145 9.32987H134.95L137.98 0.00515747Z" fill="#FFC042"/>
</svg>
