<svg width="152" height="28" fill="none" xmlns="http://www.w3.org/2000/svg"><path d="m14.02.505 3.03 9.325h9.805l-7.932 5.763 3.03 9.325-7.932-5.763-7.932 5.763 3.03-9.325L1.185 9.83h9.805L14.02.505Zm30.99 0 3.03 9.325h9.805l-7.932 5.763 3.03 9.325-7.932-5.763-7.933 5.763 3.03-9.325-7.932-5.763h9.805L45.01.505Zm30.99 0 3.03 9.325h9.805l-7.932 5.763 3.03 9.325L76 19.155l-7.932 5.763 3.03-9.325-7.932-5.763h9.804L76 .505Z" fill="#FFC042"/><path d="m106.99.505 3.03 9.325h9.804l-7.932 5.763 3.03 9.325-7.932-5.763-7.932 5.763 3.03-9.325-7.932-5.763h9.804l3.03-9.325Zm30.99 0 3.029 9.325h9.805l-7.932 5.763 3.03 9.325-7.932-5.763-7.932 5.763 3.029-9.325-7.932-5.763h9.805l3.03-9.325Z" fill="#D0CFD4"/></svg>